<?xml version="1.0" encoding="utf-8"?>
<!-- Generated by IcoMoon.io -->
<!DOCTYPE svg PUBLIC "-//W3C//DTD SVG 1.1//EN" "http://www.w3.org/Graphics/SVG/1.1/DTD/svg11.dtd">
<svg version="1.1" xmlns="http://www.w3.org/2000/svg" xmlns:xlink="http://www.w3.org/1999/xlink" width="1024" height="1024" viewBox="0 0 1024 1024">
<g id="icomoon-ignore">
</g>
<path fill="#999999" d="M412.143 19.891q83.857 0 160.166 32.705t131.236 87.63 87.63 131.236 32.705 160.166l-0.839 1.677 0.839 4.193q0 118.239-65.408 219.705l230.607 229.767q19.287 21.803 18.868 37.316t-18.868 35.64l-49.476 48.637q-21.803 16.772-38.994 16.772t-33.124-16.772l-230.607-229.767q-99.79 64.571-218.866 64.571l-4.193-0.839-1.677 0.839q-83.857 0-160.166-32.705t-131.236-87.63-87.63-131.236-32.705-160.166 32.705-160.166 87.63-131.236 131.236-87.63 160.166-32.705zM412.143 161.609q-73.794 0-135.848 36.058t-98.113 98.113-36.058 135.848 36.058 135.848 98.113 98.113 135.848 36.058 135.848-36.058 98.113-98.113 36.058-135.848-36.058-135.848-98.113-98.113-135.848-36.058z"></path>
</svg>
